<?xml version="1.0" encoding="UTF-8" standalone="no"?>
<!-- Created with Inkscape (http://www.inkscape.org/) -->
<svg
   xmlns:dc="http://purl.org/dc/elements/1.1/"
   xmlns:cc="http://creativecommons.org/ns#"
   xmlns:rdf="http://www.w3.org/1999/02/22-rdf-syntax-ns#"
   xmlns:svg="http://www.w3.org/2000/svg"
   xmlns="http://www.w3.org/2000/svg"
   xmlns:sodipodi="http://sodipodi.sourceforge.net/DTD/sodipodi-0.dtd"
   xmlns:inkscape="http://www.inkscape.org/namespaces/inkscape"
   id="svg2"
   sodipodi:version="0.32"
   inkscape:version="0.46"
   width="435.26318"
   height="377.60779"
   version="1.0"
   sodipodi:docname="Untitled.svg"
   inkscape:output_extension="org.inkscape.output.svg.inkscape">
  <metadata
     id="metadata7">
    <rdf:RDF>
      <cc:Work
         rdf:about="">
        <dc:format>image/svg+xml</dc:format>
        <dc:type
           rdf:resource="http://purl.org/dc/dcmitype/StillImage" />
      </cc:Work>
    </rdf:RDF>
  </metadata>
  <defs
     id="defs5">
    <inkscape:perspective
       sodipodi:type="inkscape:persp3d"
       inkscape:vp_x="0 : 526.18109 : 1"
       inkscape:vp_y="0 : 1000 : 0"
       inkscape:vp_z="744.09448 : 526.18109 : 1"
       inkscape:persp3d-origin="372.04724 : 350.78739 : 1"
       id="perspective9" />
  </defs>
  <sodipodi:namedview
     inkscape:window-height="750"
     inkscape:window-width="1280"
     inkscape:pageshadow="2"
     inkscape:pageopacity="0.0"
     guidetolerance="10.0"
     gridtolerance="10.0"
     objecttolerance="10.0"
     borderopacity="1.0"
     bordercolor="#666666"
     pagecolor="#ffffff"
     id="base"
     showgrid="false"
     inkscape:zoom="1.0547945"
     inkscape:cx="237.5"
     inkscape:cy="219"
     inkscape:window-x="-8"
     inkscape:window-y="-8"
     inkscape:current-layer="svg2" />
  <path
     style="fill:#000000"
     d="M 136.44402,357.10777 C 136.44402,345.83277 136.31278,336.60777 136.15238,336.60777 C 135.99198,336.60777 129.80448,338.64454 122.40238,341.13393 C 78.038836,356.05378 39.662616,361.90455 17.280246,357.16068 C 3.8531656,354.31485 -0.089574379,350.19544 0.0015356209,339.10777 C 0.13659562,322.67047 12.650076,302.382 38.911226,276.02233 C 54.426066,260.44928 65.164496,251.26133 85.588536,236.08452 L 99.233066,225.94548 L 85.280816,214.25378 L 71.328566,202.56208 L 67.482756,203.71431 C 56.807086,206.91282 46.678476,197.58589 49.546736,187.19791 C 50.483526,183.80515 50.432466,183.73372 39.361656,172.94791 C 19.848576,153.93718 12.558336,142.74655 11.668866,130.43905 C 10.790986,118.29202 16.799126,110.77215 30.944016,106.31401 C 37.000196,104.40524 40.101326,104.11727 53.944016,104.17826 C 77.539726,104.28222 96.320616,108.10992 132.07342,120.10167 L 153.20283,127.18863 L 155.86588,113.1482 C 164.09659,69.753315 174.64858,38.711124 187.47662,20.154718 C 193.6322,11.250354 198.45338,6.6797038 205.65812,2.9180098 C 212.63581,-0.72514223 223.45625,-0.98924723 230.66125,2.3077348 C 252.06825,12.103502 268.95325,49.975925 280.92485,115.04711 C 282.33534,122.71375 283.62842,129.1255 283.79837,129.29545 C 283.96832,129.46541 289.47062,127.63635 296.0257,125.23089 C 320.76354,116.15304 346.19207,109.27637 366.84957,106.07789 C 382.06197,103.7225 402.63729,104.3853 410.6163,107.48777 C 420.82444,111.45698 426.42907,120.47449 424.94182,130.53667 C 421.42704,154.31637 392.79423,188.95349 350.06737,221.1123 C 345.87453,224.26808 342.4515,227.13307 342.46064,227.47893 C 342.46978,227.82479 346.63228,231.02999 351.71064,234.60159 C 380.90268,255.13231 409.88342,282.30242 421.86362,300.37163 C 436.12178,321.87658 439.1615,340.02632 430.21211,350.21912 C 422.90112,358.54588 396.22379,359.60925 357.8259,353.10447 C 343.24228,350.63393 315.90356,344.03436 305.67506,340.51524 C 302.62578,339.46613 299.75137,338.60777 299.28747,338.60777 C 298.82357,338.60777 298.44402,347.38277 298.44402,358.10777 L 298.44402,377.60777 L 283.44402,377.60777 L 268.44402,377.60777 L 268.41184,352.35777 L 268.37966,327.10777 L 256.66184,322.20814 C 250.21704,319.51334 238.26002,314.00488 230.09068,309.96711 L 215.23734,302.62572 L 202.09068,308.7903 C 194.86002,312.18082 183.99402,317.09896 177.94402,319.71949 L 166.94402,324.48411 L 166.67769,351.04594 L 166.41135,377.60777 L 151.42769,377.60777 L 136.44402,377.60777 L 136.44402,357.10777 z M 67.944016,341.6514 C 74.544016,340.57077 85.344016,338.29048 91.944016,336.5841 C 104.11177,333.43823 135.04507,323.33958 136.27368,322.11201 C 136.64237,321.74364 137.05519,317.54199 137.19107,312.77501 C 137.32694,308.00803 137.93531,293.31842 138.543,280.13143 L 139.6479,256.1551 L 137.33095,254.63143 C 136.05663,253.79342 129.4385,248.95264 122.62399,243.87415 L 110.23399,234.64052 L 96.469466,243.48656 C 40.998376,279.13616 7.4191556,311.936 7.1353756,330.74719 C 7.0567456,335.95938 8.7619956,338.6866 13.694506,341.2373 C 20.823566,344.92388 46.748726,345.12177 67.944016,341.6514 z M 407.42028,343.54194 C 415.89013,342.16777 420.19235,339.43095 422.66314,333.84531 C 430.39234,316.37217 402.83907,285.82798 344.28631,246.96064 L 328.62861,236.56704 L 319.28631,242.86985 C 314.14805,246.33639 306.86445,251.10408 303.10053,253.46473 L 296.25705,257.75681 L 296.9753,282.93229 C 297.37034,296.7788 297.97491,311.00258 298.31879,314.54069 L 298.94402,320.97361 L 310.44402,324.88467 C 337.40866,334.05513 368.36891,341.59494 386.94402,343.51486 C 398.47413,344.70661 400.22739,344.70893 407.42028,343.54194 z M 188.94402,299.66123 L 199.94402,294.49359 L 197.07842,292.80068 C 195.50234,291.86958 188.52734,287.67491 181.57842,283.47918 L 168.94402,275.85059 L 168.3109,281.97918 C 167.96269,285.34991 167.62519,292.92051 167.5609,298.80274 L 167.44402,309.49771 L 172.69402,307.1633 C 175.58152,305.87937 182.89402,302.50344 188.94402,299.66123 z M 268.28188,292.68921 C 268.09606,283.93401 267.63664,276.46412 267.26094,276.08947 C 266.88525,275.71482 260.81025,278.56019 253.76094,282.41251 C 246.71164,286.26484 239.17362,290.29953 237.0098,291.37848 L 233.07559,293.34022 L 235.5098,294.66299 C 240.35515,297.29598 265.97708,308.4957 267.28188,308.55104 C 268.35888,308.59671 268.55386,305.50399 268.28188,292.68921 z M 228.73756,279.50459 C 249.21625,268.35165 266.3871,258.50888 266.94794,257.60143 C 267.25254,257.10857 267.0032,244.19587 266.39385,228.90655 L 265.28594,201.10777 L 262.79266,199.10777 C 259.50076,196.46715 221.54604,176.60777 219.79126,176.60777 C 219.04111,176.60777 208.11061,181.76988 195.50126,188.07913 L 172.57515,199.55049 L 172.02708,203.82913 C 171.49019,208.02043 169.67287,240.76039 169.26398,253.60777 L 169.0571,260.10777 L 177.50056,264.98096 C 187.9788,271.02853 215.66238,285.57059 216.73756,285.59198 C 217.17401,285.60067 222.57401,282.86134 228.73756,279.50459 z M 141.44339,229.61548 C 141.99763,222.8318 142.2507,217.08112 142.00577,216.83618 C 141.57007,216.40049 125.75559,225.15733 122.09024,227.86386 C 120.38537,229.12275 121.02609,229.76511 130.06654,235.8606 C 135.47309,239.50595 140.01791,242.36721 140.16615,242.21897 C 140.31439,242.07073 140.88915,236.39916 141.44339,229.61548 z M 305.8357,234.14928 C 310.67778,231.02562 314.483,228.31776 314.29175,228.13181 C 314.1005,227.94587 309.26395,225.03365 303.54386,221.6602 L 293.14369,215.52667 L 293.79386,223.2181 C 294.15145,227.44838 294.44402,233.13978 294.44402,235.86564 C 294.44402,241.73555 293.96391,241.80788 305.8357,234.14928 z M 121.80111,211.25775 C 129.02971,206.66523 136.9843,201.72945 139.47797,200.28934 L 144.01192,197.67095 L 146.81542,173.88936 C 148.35734,160.80949 149.84548,148.71451 150.12238,147.01164 L 150.62585,143.91552 L 136.78494,138.65321 C 98.286326,124.01605 71.705906,117.53125 49.838676,117.44101 C 36.642696,117.38656 29.415006,119.40148 24.238766,124.57773 C 20.899436,127.91705 20.444016,128.94878 20.444016,133.1744 C 20.444016,140.96606 23.460656,145.48065 39.857656,162.22811 L 55.035916,177.73079 L 60.105056,177.05835 C 69.846046,175.76616 76.425366,181.42199 76.448466,191.10777 C 76.460206,196.03018 76.556806,196.18536 82.673676,201.10777 C 93.479486,209.80349 106.75541,219.60777 107.72443,219.60777 C 108.238,219.60777 114.5725,215.85026 121.80111,211.25775 z M 343.31196,208.98679 C 373.39166,187.7577 385.35746,177.25463 396.67106,162.15047 C 414.14038,138.82815 415.93602,124.20639 401.92088,119.40154 C 385.45905,113.75789 351.5289,121.16676 295.19402,142.70605 C 289.47728,144.89181 286.44287,146.58129 286.44072,147.57966 C 286.4389,148.42012 287.58913,159.45777 288.99678,172.10777 C 291.03683,190.44079 291.89988,195.37878 293.25009,196.44339 C 296.07681,198.67218 327.88127,218.40886 328.81196,218.51179 C 329.28933,218.56458 335.81433,214.27833 343.31196,208.98679 z M 187.44402,173.65299 L 200.94402,166.74144 L 189.18074,161.17461 C 182.71093,158.11285 177.0263,155.60777 176.54823,155.60777 C 176.07015,155.60777 175.38985,159.09527 175.03644,163.35777 C 174.68304,167.62027 174.13794,173.24527 173.82512,175.85777 C 173.51229,178.47027 173.41107,180.59804 173.60018,180.58615 C 173.78929,180.57426 180.01902,177.45433 187.44402,173.65299 z M 262.97792,168.35777 C 262.58004,162.17027 262.12631,156.97443 261.96962,156.81146 C 261.81293,156.64849 256.66532,158.89849 250.53048,161.81146 L 239.37622,167.10777 L 250.66012,173.249 C 256.86627,176.62668 262.33941,179.43918 262.82267,179.499 C 263.31942,179.56049 263.3869,174.71794 262.97792,168.35777 z M 248.44402,144.39494 C 254.76902,141.63577 260.09294,139.24348 260.27496,139.07874 C 260.93985,138.47697 256.23743,100.63172 253.39639,83.719715 C 245.46983,36.534925 234.88553,11.646078 221.6177,8.9925098 C 206.14867,5.8987038 193.17927,33.667536 183.96645,89.607775 C 180.3575,111.52131 177.30641,136.89503 178.19321,137.61966 C 178.60616,137.95709 182.82095,139.92364 187.55941,141.98976 C 192.29787,144.05589 201.52287,148.33892 208.05941,151.50761 L 219.94402,157.26886 L 228.44402,153.34023 C 233.11902,151.17949 242.11902,147.1541 248.44402,144.39494 z"
     id="path2384" />
</svg>
